<svg width="37" height="37" viewBox="0 0 37 37" fill="none" xmlns="http://www.w3.org/2000/svg">
<g clip-path="url(#clip0_6356_14069)">
<path d="M31.7188 6.125V11.75C31.7188 11.9738 31.6299 12.1884 31.4716 12.3466C31.3134 12.5049 31.0988 12.5938 30.875 12.5938C30.6512 12.5938 30.4366 12.5049 30.2784 12.3466C30.1201 12.1884 30.0312 11.9738 30.0312 11.75V6.96875H25.25C25.0262 6.96875 24.8116 6.87986 24.6534 6.72162C24.4951 6.56339 24.4062 6.34878 24.4062 6.125C24.4062 5.90122 24.4951 5.68661 24.6534 5.52838C24.8116 5.37014 25.0262 5.28125 25.25 5.28125H30.875C31.0988 5.28125 31.3134 5.37014 31.4716 5.52838C31.6299 5.68661 31.7188 5.90122 31.7188 6.125ZM11.75 30.0312H6.96875V25.25C6.96875 25.0262 6.87986 24.8116 6.72162 24.6534C6.56339 24.4951 6.34878 24.4062 6.125 24.4062C5.90122 24.4062 5.68661 24.4951 5.52838 24.6534C5.37014 24.8116 5.28125 25.0262 5.28125 25.25V30.875C5.28125 31.0988 5.37014 31.3134 5.52838 31.4716C5.68661 31.6299 5.90122 31.7188 6.125 31.7188H11.75C11.9738 31.7188 12.1884 31.6299 12.3466 31.4716C12.5049 31.3134 12.5938 31.0988 12.5938 30.875C12.5938 30.6512 12.5049 30.4366 12.3466 30.2784C12.1884 30.1201 11.9738 30.0312 11.75 30.0312ZM30.875 24.4062C30.6512 24.4062 30.4366 24.4951 30.2784 24.6534C30.1201 24.8116 30.0312 25.0262 30.0312 25.25V30.0312H25.25C25.0262 30.0312 24.8116 30.1201 24.6534 30.2784C24.4951 30.4366 24.4062 30.6512 24.4062 30.875C24.4062 31.0988 24.4951 31.3134 24.6534 31.4716C24.8116 31.6299 25.0262 31.7188 25.25 31.7188H30.875C31.0988 31.7188 31.3134 31.6299 31.4716 31.4716C31.6299 31.3134 31.7188 31.0988 31.7188 30.875V25.25C31.7188 25.0262 31.6299 24.8116 31.4716 24.6534C31.3134 24.4951 31.0988 24.4062 30.875 24.4062ZM6.125 12.5938C6.34878 12.5938 6.56339 12.5049 6.72162 12.3466C6.87986 12.1884 6.96875 11.9738 6.96875 11.75V6.96875H11.75C11.9738 6.96875 12.1884 6.87986 12.3466 6.72162C12.5049 6.56339 12.5938 6.34878 12.5938 6.125C12.5938 5.90122 12.5049 5.68661 12.3466 5.52838C12.1884 5.37014 11.9738 5.28125 11.75 5.28125H6.125C5.90122 5.28125 5.68661 5.37014 5.52838 5.52838C5.37014 5.68661 5.28125 5.90122 5.28125 6.125V11.75C5.28125 11.9738 5.37014 12.1884 5.52838 12.3466C5.68661 12.5049 5.90122 12.5938 6.125 12.5938ZM11.75 10.9062H25.25C25.4738 10.9062 25.6884 10.9951 25.8466 11.1534C26.0049 11.3116 26.0938 11.5262 26.0938 11.75V25.25C26.0938 25.4738 26.0049 25.6884 25.8466 25.8466C25.6884 26.0049 25.4738 26.0938 25.25 26.0938H11.75C11.5262 26.0938 11.3116 26.0049 11.1534 25.8466C10.9951 25.6884 10.9062 25.4738 10.9062 25.25V11.75C10.9062 11.5262 10.9951 11.3116 11.1534 11.1534C11.3116 10.9951 11.5262 10.9062 11.75 10.9062ZM12.5938 24.4062H24.4062V12.5938H12.5938V24.4062Z" fill="#2A1A1F"/>
</g>
<defs>
<clipPath id="clip0_6356_14069">
<rect width="36" height="36" fill="white" transform="translate(0.5 0.5)"/>
</clipPath>
</defs>
</svg>
