<svg width="50" height="51" viewBox="0 0 50 51" fill="none" xmlns="http://www.w3.org/2000/svg">
<rect x="1" y="1.5" width="48" height="48" rx="24" stroke="#2A1A1F" stroke-width="2"/>
<path d="M11 20.5C11 19.7044 11.3161 18.9413 11.8787 18.3787C12.4413 17.8161 13.2044 17.5 14 17.5H15.395C15.8888 17.5001 16.3749 17.3783 16.8103 17.1454C17.2458 16.9125 17.617 16.5757 17.891 16.165L19.109 14.335C19.383 13.9243 19.7542 13.5875 20.1897 13.3546C20.6251 13.1217 21.1112 12.9999 21.605 13H27.395C27.8888 12.9999 28.3749 13.1217 28.8103 13.3546C29.2458 13.5875 29.617 13.9243 29.891 14.335L31.109 16.165C31.383 16.5757 31.7542 16.9125 32.1897 17.1454C32.6251 17.3783 33.1112 17.5001 33.605 17.5H35C35.7956 17.5 36.5587 17.8161 37.1213 18.3787C37.6839 18.9413 38 19.7044 38 20.5V34C38 34.7956 37.6839 35.5587 37.1213 36.1213C36.5587 36.6839 35.7956 37 35 37H14C13.2044 37 12.4413 36.6839 11.8787 36.1213C11.3161 35.5587 11 34.7956 11 34V20.5Z" stroke="#2A1A1F" stroke-width="1.5" stroke-linecap="round" stroke-linejoin="round"/>
<path d="M29 26.5C29 27.6935 28.5259 28.8381 27.682 29.682C26.8381 30.5259 25.6935 31 24.5 31C23.3065 31 22.1619 30.5259 21.318 29.682C20.4741 28.8381 20 27.6935 20 26.5C20 25.3065 20.4741 24.1619 21.318 23.318C22.1619 22.4741 23.3065 22 24.5 22C25.6935 22 26.8381 22.4741 27.682 23.318C28.5259 24.1619 29 25.3065 29 26.5V26.5Z" stroke="#2A1A1F" stroke-width="1.5" stroke-linecap="round" stroke-linejoin="round"/>
</svg>
