<svg width="36" height="37" viewBox="0 0 36 37" fill="none" xmlns="http://www.w3.org/2000/svg">
<path d="M6 24.5L12.879 17.621C13.4416 17.0586 14.2045 16.7426 15 16.7426C15.7955 16.7426 16.5584 17.0586 17.121 17.621L24 24.5M21 21.5L23.379 19.121C23.9416 18.5586 24.7045 18.2426 25.5 18.2426C26.2955 18.2426 27.0584 18.5586 27.621 19.121L30 21.5M21 12.5H21.015M9 30.5H27C27.7956 30.5 28.5587 30.1839 29.1213 29.6213C29.6839 29.0587 30 28.2956 30 27.5V9.5C30 8.70435 29.6839 7.94129 29.1213 7.37868C28.5587 6.81607 27.7956 6.5 27 6.5H9C8.20435 6.5 7.44129 6.81607 6.87868 7.37868C6.31607 7.94129 6 8.70435 6 9.5V27.5C6 28.2956 6.31607 29.0587 6.87868 29.6213C7.44129 30.1839 8.20435 30.5 9 30.5Z" stroke="#2A1A1F" stroke-width="1.5" stroke-linecap="round" stroke-linejoin="round"/>
</svg>
