<svg width="80" height="80" viewBox="0 0 80 80" fill="none" xmlns="http://www.w3.org/2000/svg">
<g clip-path="url(#clip0_6275_171)">
<path d="M29.4001 37.6333C29.0877 37.9432 28.8397 38.3119 28.6705 38.7181C28.5012 39.1243 28.4141 39.56 28.4141 40C28.4141 40.44 28.5012 40.8757 28.6705 41.2819C28.8397 41.6881 29.0877 42.0568 29.4001 42.3667C30.0246 42.9875 30.8695 43.336 31.7501 43.336C32.6307 43.336 33.4756 42.9875 34.1001 42.3667C34.4125 42.0568 34.6605 41.6881 34.8297 41.2819C34.999 40.8757 35.0861 40.44 35.0861 40C35.0861 39.56 34.999 39.1243 34.8297 38.7181C34.6605 38.3119 34.4125 37.9432 34.1001 37.6333C33.4756 37.0125 32.6307 36.664 31.7501 36.664C30.8695 36.664 30.0246 37.0125 29.4001 37.6333ZM37.6334 45.9C37.0126 46.5245 36.6641 47.3694 36.6641 48.25C36.6641 49.1306 37.0126 49.9755 37.6334 50.6C37.9433 50.9124 38.312 51.1604 38.7182 51.3296C39.1244 51.4989 39.5601 51.586 40.0001 51.586C40.4401 51.586 40.8758 51.4989 41.282 51.3296C41.6882 51.1604 42.0569 50.9124 42.3668 50.6C42.9876 49.9755 43.3361 49.1306 43.3361 48.25C43.3361 47.3694 42.9876 46.5245 42.3668 45.9C42.0569 45.5876 41.6882 45.3396 41.282 45.1704C40.8758 45.0011 40.4401 44.914 40.0001 44.914C39.5601 44.914 39.1244 45.0011 38.7182 45.1704C38.312 45.3396 37.9433 45.5876 37.6334 45.9ZM67.6334 12.5667C64.0075 8.91076 59.1112 6.79419 53.9639 6.65759C48.8166 6.52099 43.8149 8.37489 40.0001 11.8333C36.2029 8.41527 31.2417 6.57994 26.1342 6.70391C21.0267 6.82788 16.1603 8.90174 12.5334 12.5C8.93016 16.1328 6.85627 21.0085 6.73846 26.1238C6.62065 31.2392 8.46789 36.2052 11.9001 40C9.33402 42.8688 7.65023 46.4171 7.05081 50.2191C6.45139 54.0212 6.96179 57.9154 8.52077 61.4345C10.0797 64.9537 12.6211 67.9482 15.8398 70.0588C19.0585 72.1694 22.8179 73.3064 26.6668 73.3333C31.6009 73.3386 36.3579 71.4952 40.0001 68.1667C43.7991 71.5945 48.7675 73.4359 53.8829 73.3119C58.9983 73.1879 63.8716 71.1079 67.5001 67.5C71.0988 63.8629 73.1666 58.9849 73.2782 53.8695C73.3898 48.7542 71.5367 43.7906 68.1001 40C71.5367 36.2094 73.3898 31.2458 73.2782 26.1305C73.1666 21.0152 71.0988 16.1371 67.5001 12.5L67.6334 12.5667ZM62.7668 17.2333C65.0849 19.618 66.4282 22.7828 66.533 26.1068C66.6378 29.4308 65.4967 32.674 63.3334 35.2L44.8001 16.6667C47.3482 14.5525 50.5814 13.443 53.8908 13.5474C57.2001 13.6518 60.357 14.9628 62.7668 17.2333ZM17.2334 62.7667C14.9153 60.382 13.5721 57.2172 13.4672 53.8932C13.3624 50.5692 14.5035 47.326 16.6668 44.8L35.3334 63.4667C32.7571 65.5934 29.4882 66.6975 26.1499 66.5684C22.8117 66.4393 19.6378 65.086 17.2334 62.7667ZM62.7668 62.7667C60.2359 65.1872 56.8688 66.5381 53.3668 66.5381C49.8647 66.5381 46.4977 65.1872 43.9668 62.7667L17.3001 36.1C14.8168 33.6018 13.4229 30.2225 13.4229 26.7C13.4229 23.1775 14.8168 19.7982 17.3001 17.3C19.7983 14.8167 23.1776 13.4228 26.7001 13.4228C30.2226 13.4228 33.6019 14.8167 36.1001 17.3L62.7668 43.9667C65.2501 46.4648 66.644 49.8442 66.644 53.3667C66.644 56.8891 65.2501 60.2685 62.7668 62.7667ZM45.9001 37.6333C45.5877 37.9432 45.3397 38.3119 45.1705 38.7181C45.0012 39.1243 44.9141 39.56 44.9141 40C44.9141 40.44 45.0012 40.8757 45.1705 41.2819C45.3397 41.6881 45.5877 42.0568 45.9001 42.3667C46.5247 42.9875 47.3695 43.336 48.2501 43.336C49.1307 43.336 49.9756 42.9875 50.6001 42.3667C50.9125 42.0568 51.1605 41.6881 51.3297 41.2819C51.499 40.8757 51.5861 40.44 51.5861 40C51.5861 39.56 51.499 39.1243 51.3297 38.7181C51.1605 38.3119 50.9125 37.9432 50.6001 37.6333C49.9756 37.0125 49.1307 36.664 48.2501 36.664C47.3695 36.664 46.5247 37.0125 45.9001 37.6333ZM37.6334 29.4C37.0126 30.0245 36.6641 30.8694 36.6641 31.75C36.6641 32.6306 37.0126 33.4755 37.6334 34.1C37.9433 34.4124 38.312 34.6604 38.7182 34.8296C39.1244 34.9989 39.5601 35.086 40.0001 35.086C40.4401 35.086 40.8758 34.9989 41.282 34.8296C41.6882 34.6604 42.0569 34.4124 42.3668 34.1C42.9876 33.4755 43.3361 32.6306 43.3361 31.75C43.3361 30.8694 42.9876 30.0245 42.3668 29.4C42.0569 29.0876 41.6882 28.8396 41.282 28.6704C40.8758 28.5011 40.4401 28.414 40.0001 28.414C39.5601 28.414 39.1244 28.5011 38.7182 28.6704C38.312 28.8396 37.9433 29.0876 37.6334 29.4Z" fill="#044B63"/>
</g>
<defs>
<clipPath id="clip0_6275_171">
<rect width="80" height="80" fill="white"/>
</clipPath>
</defs>
</svg>
